<!DOCTYPE svg PUBLIC "-//W3C//DTD SVG 1.1//EN" "http://www.w3.org/Graphics/SVG/1.1/DTD/svg11.dtd">
<!-- Uploaded to: SVG Repo, www.svgrepo.com, Transformed by: SVG Repo Mixer Tools -->
<svg fill="#06202b" width="800px" height="800px" viewBox="0 0 24 24" xmlns="http://www.w3.org/2000/svg">
<g id="SVGRepo_bgCarrier" stroke-width="0"/>
<g id="SVGRepo_tracerCarrier" stroke-linecap="round" stroke-linejoin="round"/>
<g id="SVGRepo_iconCarrier">
<path d="M22,2H2A1,1,0,0,0,1,3V17a1,1,0,0,0,1,1h9v2H8a1,1,0,0,0,0,2h8a1,1,0,0,0,0-2H13V18h9a1,1,0,0,0,1-1V3A1,1,0,0,0,22,2ZM21,16H3V4H21Z"/>
</g>
</svg>